# xmcd
#
# Track frame offsets: 
#        150
#        15274
#        43320
#        73072
#        87301
#        108081
#        138453
#
# Disc length: 1979 seconds
#
# Revision: 0
# Processed by: cddbd v1.5.2PL0 Copyright (c) Steve Scherf et al.
# Submitted via: ExactAudioCopy v1.0b4
#
DISCID=5707b907
DTITLE=Sugar Blue - Cross Roads (LP)
DYEAR=1979
DGENRE=Blues
TTITLE0=Pontiac
TTITLE1=Begging The Girl To Go
TTITLE2=Dark And Hungry
TTITLE3=Shed No Tears
TTITLE4=War Zone
TTITLE5=My Baby Caught The Train
TTITLE6=Another Man Done Gone
EXTD=
EXTT0=
EXTT1=
EXTT2=
EXTT3=
EXTT4=
EXTT5=
EXTT6=
PLAYORDER=
